# xmcd
#
# Track frame offsets:
#	150
#	17547
#	41465
#	54390
#	79975
#	95022
#	112315
#	127970
#	151155
#	167582
#	193917
#	211617
#
# Disc length: 3126 seconds
#
# Revision: 2
# Processed by: cddbd v1.4PL0 Copyright (c) Steve Scherf et al.
# Submitted via: dBpowerAMP V4.0
#
DISCID=970c340c
DTITLE=Reverend Gary Davis - O, Glory: The Apostolic Studio Sessions
DYEAR=1900
DGENRE=blues
TTITLE0=Let's Get Together
TTITLE1=Sun Goin' Down
TTITLE2=Slippin' Til' My Gal Gets In
TTITLE3=Lo, I'll Be With You Always
TTITLE4=God Will Take Care Of You
TTITLE5=Mornin' Train
TTITLE6=Out On The Ocean Sailing
TTITLE7=Right Now
TTITLE8=Birmingham Special
TTITLE9=Theres Destruction In That Land O, Glory Soon My Work Will All Be Done
TTITLE10=O, Glory
TTITLE11=Soon My Work Will All Be Done
EXTD=
EXTT0=
EXTT1=
EXTT2=
EXTT3=
EXTT4=
EXTT5=
EXTT6=
EXTT7=
EXTT8=
EXTT9=
EXTT10=
EXTT11=
PLAYORDER=
